<?xml version="1.0" encoding="UTF-8" standalone="no"?>
<svg
   version="1.1"
   x="0px"
   y="0px"
   xml:space="preserve"
   id="svg2"
   width="80"
   height="60"
   xmlns="http://www.w3.org/2000/svg"
   xmlns:svg="http://www.w3.org/2000/svg"><defs
     id="defs1" /><path
     d="m 78.6638 36.7667 c -0.4374 -4.0055 -3.0618 -7.31 -6.4735 -8.3113 c -1.4872 -0.5007 -2.8868 -0.4006 -4.199 -0.1001 c -0.6998 0.2003 -1.3997 -0.1002 -1.8371 -0.6008 L 63.3548 24.0493 C 62.9175 23.4485 62.83 22.6474 63.0924 21.9465 C 64.1422 19.6433 64.667 17.0398 64.5796 14.1358 C 64.1422 6.5255 58.6309 0.317 51.9825 0.0166 C 44.4592 -0.384 38.2481 6.5255 38.2481 15.0371 c 0 4.0055 1.3997 7.7105 3.6741 10.4142 c 0.6124 0.701 0.7873 1.8025 0.3499 2.7037 l -5.5112 10.5143 c -0.4374 0.9012 -1.2247 1.4019 -2.0995 1.4019 v 0 c -0.5249 0 -1.0498 0.1001 -1.4872 0.2002 c -1.3997 0.3004 -2.8868 -0.3004 -3.8491 -1.4019 L 27.1382 36.0657 c -1.8371 -2.203 -2.362 -4.9067 -1.5746 -7.31 c 0.6998 -2.1029 1.0498 -4.406 0.7873 -6.9094 C 25.7386 14.6365 20.4898 8.9287 14.1037 8.428 C 5.8806 7.8272 -0.9428 15.8381 0.107 25.251 c 0.6998 6.5089 5.1613 11.9162 10.8475 12.9176 c 1.7496 0.3004 3.4992 0.3004 5.1613 -0.2002 c 2.0995 -0.5007 4.2865 0.1001 5.6862 1.9026 l 3.1493 3.9053 c 0.9623 1.1015 1.2247 2.7037 0.9623 4.2057 c -0.1749 0.8011 -0.1749 1.6022 -0.1749 2.5034 c 0.1749 5.2071 4.1116 9.513 8.6605 9.513 c 4.8989 0.1001 8.9229 -4.406 8.9229 -10.0137 c 0 -1.9026 -0.4374 -3.7051 -1.3122 -5.2071 c -0.4374 -0.8011 -0.5249 -1.8025 -0.0875 -2.6035 l 5.8612 -11.1152 c 0.4374 -0.8011 1.1372 -1.2016 2.012 -1.1015 c 0.5249 0.1002 1.0498 0.1002 1.6621 0.1002 c 2.012 0 3.9366 -0.5007 5.6862 -1.502 c 0.6998 -0.4006 1.4872 -0.2003 2.012 0.4006 l 2.4494 3.1042 c 0.4374 0.6008 0.6124 1.5021 0.3499 2.203 c -0.5249 1.6022 -0.7873 3.4046 -0.5249 5.3072 c 0.6124 4.406 3.8491 7.9108 7.7857 8.4115 c 5.5112 0.701 10.2351 -4.7064 9.4478 -11.2153 z M 12.9665 35.7653 c -5.7737 0 -10.4976 -5.4074 -10.4976 -12.0164 c 0 -6.609 4.7239 -12.0164 10.4976 -12.0164 c 5.7737 0 10.4976 5.4074 10.4976 12.0164 c 0 6.609 -4.7239 12.0164 -10.4976 12.0164 z M 51.2826 27.3539 c -5.7737 0 -10.4976 -5.4074 -10.4976 -12.0164 c 0 -6.609 4.7239 -12.0164 10.4976 -12.0164 c 5.7737 0 10.4976 5.4074 10.4976 12.0164 c 0 6.7091 -4.6364 12.0164 -10.4976 12.0164 z"     id="path1"
     style="fill:#000000;stroke-width:0.499168" /></svg>
