<?xml version="1.0" encoding="UTF-8" standalone="no"?>
<svg
   version="1.1"
   x="0px"
   y="0px"
   xml:space="preserve"
   id="svg2"
   width="41.999996"
   height="32"
   xmlns="http://www.w3.org/2000/svg"
   xmlns:svg="http://www.w3.org/2000/svg"><defs
     id="defs1" /><path
     d="m 41.954024,19.608906 c -0.233266,-2.136244 -1.632955,-3.89865 -3.452535,-4.43271 -0.793148,-0.267014 -1.539642,-0.213632 -2.239482,-0.05341 -0.373245,0.1068 -0.746493,-0.05342 -0.979773,-0.320432 L 33.789246,12.826319 C 33.55598,12.505884 33.509315,12.078632 33.649281,11.704789 34.209152,10.476448 34.489087,9.0878871 34.442428,7.5391098 34.209164,3.4802416 31.269829,0.16906375 27.723985,0.00884347 23.711579,-0.20479056 20.399011,3.4802416 20.399011,8.0197669 c 0,2.1362441 0.746491,4.1122721 1.959545,5.5542391 0.326592,0.373844 0.419904,0.961311 0.186631,1.441965 l -2.93932,5.607645 c -0.233266,0.480657 -0.65318,0.747688 -1.119741,0.747688 v 0 c -0.279932,0 -0.55987,0.05341 -0.79315,0.106799 -0.746492,0.160217 -1.539643,-0.160219 -2.052858,-0.747686 L 14.473721,19.23504 c -0.979772,-1.174934 -1.259708,-2.616901 -0.839806,-3.898648 0.373249,-1.121527 0.559871,-2.349871 0.419903,-3.685021 C 13.727228,7.8061257 10.927876,4.761978 7.5219942,4.4949444 3.1363426,4.174511 -0.50281613,8.4469995 0.05705458,13.467178 c 0.37324714,3.471397 2.75269692,6.355333 5.78532812,6.889393 0.9331185,0.160219 1.866237,0.160219 2.7526988,-0.106799 1.119741,-0.267016 2.2861385,0.05341 3.0326305,1.014716 l 1.679612,2.082842 c 0.513217,0.587467 0.653182,1.441967 0.513217,2.243058 -0.0933,0.42725 -0.0933,0.8545 -0.0933,1.335153 0.0933,2.777122 2.192827,5.073586 4.618931,5.073586 2.612729,0.05341 4.758901,-2.349873 4.758901,-5.340617 0,-1.014716 -0.233267,-1.976027 -0.699841,-2.77712 -0.233265,-0.427247 -0.279931,-0.961311 -0.04668,-1.388558 l 3.125957,-5.928083 c 0.233268,-0.427248 0.606525,-0.640872 1.073086,-0.587471 0.279931,0.05342 0.559872,0.05342 0.886463,0.05342 1.073084,0 2.099511,-0.267018 3.03263,-0.801091 0.373248,-0.213637 0.793149,-0.1068 1.073085,0.213633 l 1.306366,1.65559 c 0.233265,0.320434 0.326591,0.801094 0.186631,1.174935 -0.279931,0.854499 -0.419905,1.81581 -0.279931,2.830528 0.326592,2.349871 2.052858,4.219085 4.15237,4.486115 2.939323,0.373845 5.458739,-2.510088 5.038836,-5.981491 z M 6.915461,19.074846 c -3.0792904,0 -5.5987073,-2.883931 -5.5987073,-6.408739 0,-3.5248058 2.5194169,-6.4087372 5.5987073,-6.4087372 3.0792871,0 5.598703,2.8839314 5.598703,6.4087372 0,3.524808 -2.5194159,6.408739 -5.598703,6.408739 z M 27.350734,14.58873 c -3.079286,0 -5.598704,-2.883934 -5.598704,-6.4087395 0,-3.5248046 2.519418,-6.4087357 5.598704,-6.4087357 3.079288,0 5.598707,2.8839311 5.598707,6.4087357 0,3.5782115 -2.472763,6.4087395 -5.598707,6.4087395 z"
     id="path1"
     style="fill:#000000;stroke-width:0.499168" /></svg>
