<?xml version="1.0" encoding="UTF-8" standalone="no"?>
<svg
   viewBox="0 0 3456.1836 4479.9995"
   x="0px"
   y="0px"
   version="1.1"
   id="svg5"
   sodipodi:docname="noun-japan-6271195.svg"
   width="3456.1836"
   height="4479.9995"
   xmlns:inkscape="http://www.inkscape.org/namespaces/inkscape"
   xmlns:sodipodi="http://sodipodi.sourceforge.net/DTD/sodipodi-0.dtd"
   xmlns="http://www.w3.org/2000/svg"
   xmlns:svg="http://www.w3.org/2000/svg">
  <defs
     id="defs5" />
  <sodipodi:namedview
     id="namedview5"
     pagecolor="#ffffff"
     bordercolor="#000000"
     borderopacity="0.25"
     inkscape:showpageshadow="2"
     inkscape:pageopacity="0.0"
     inkscape:pagecheckerboard="0"
     inkscape:deskcolor="#d1d1d1" />
  <path
     d="m -295.31957,-269.70223 c -0.18418,0.0201 -5.28082,-0.63623 -5.24051,-0.42006 -2e-5,4e-5 -2.08016,0.85009 -2.08016,0.85009 -0.34006,0.14003 -0.57006,0.45005 -0.6101,0.82008 l -0.19997,1.77018 c -0.0682,0.54758 0.38069,1.07744 0.93009,1.10006 -1e-5,1e-5 2.21015,0.14004 2.21015,0.14004 l 0.4901,2.08021 c 0.11,0.46 0.50999,0.77003 0.97006,0.77003 0.05,0 0.09,0 0.14003,-0.01 l 3.99035,-0.55004 c 0.54003,-0.08 0.92007,-0.57006 0.85005,-1.11009 l -0.56005,-4.57042 c -0.05,-0.46006 -0.42002,-0.82008 -0.89003,-0.87007 z"
     id="path1"
     style="fill:#ffffff" />
  <path
     d="m -271.24745,-296.38464 c -0.1947,-0.53288 -0.83826,-0.80628 -1.3501,-0.56004 0,0 -3.23027,1.44012 -3.23027,1.44012 -0.37003,0.17 -0.6101,0.55004 -0.59008,0.96005 l 0.15004,2.94027 c -0.87007,0.79011 -1.6702,1.65017 -2.39023,2.57024 -0.96011,1.23015 -1.78019,2.57024 -2.44022,3.9804 l -3.29028,2.8802 -1.32013,-1.36011 c -0.22005,-0.23 -0.54009,-0.34 -0.86006,-0.29 -0.32004,0.04 -0.59008,0.24001 -0.74012,0.52007 l -1.5801,2.99026 -10.37093,0.71003 c -0.13002,0.01 -0.25002,0.04 -0.36008,0.10005 l -4.64037,2.16017 c -0.42008,0.19002 -0.65008,0.64007 -0.56005,1.09013 0,0 0.60003,3.13029 0.60003,3.13029 0.05,0.26998 0.20003,0.50005 0.43003,0.65002 0.22005,0.14003 0.49003,0.20003 0.75007,0.14003 l 5.98052,-1.21013 c 0,0 3.27032,0.33005 3.27032,0.33005 l 0.55004,2.93026 c 0.0965,0.52553 0.59809,0.88277 1.1201,0.81007 0,0 3.06027,-0.41001 3.06027,-0.41001 0.32004,-0.04 0.59008,-0.23 0.74012,-0.50005 0,0 1.6401,-2.9103 1.6401,-2.9103 0,0 1.94018,0.90011 1.94018,0.90011 0.21004,0.09 0.44004,0.12001 0.66009,0.06 1.39229,-0.3323 2.67059,-1.05648 3.67032,-2.0802 0,0 1.12009,1.34015 1.12009,1.34015 0.18001,0.21004 0.44004,0.34 0.7201,0.35001 0.27999,0.01 0.55004,-0.09 0.75007,-0.29 l 3.22026,-3.22032 c 0.24001,-0.23 0.34006,-0.57 0.28005,-0.89003 l -0.45005,-2.38022 2.43021,-1.87016 c 0.33005,-0.25002 0.47001,-0.69006 0.34,-1.08011 l -0.98007,-3.21031 2.29019,-2.12019 c 0.18007,-0.17 0.29007,-0.39005 0.31009,-0.63006 -0.002,-0.20858 0.58579,-4.47467 0.39004,-4.53038 -6e-5,0 -1.26018,-3.44032 -1.26018,-3.44032 z"
     id="path2"
     style="fill:#ffffff" />
  <path
     d="m -308.56082,-272.44247 c -0.31003,-0.35007 -0.84004,-0.44004 -1.2401,-0.21004 l -4.02032,2.28024 c -0.47007,0.26998 -0.64007,0.86006 -0.39005,1.34009 l 1.1801,2.21022 -1.67013,2.10017 c -0.19002,0.24001 -0.25002,0.56005 -0.18001,0.86012 l 0.75007,3.10026 c 0.14747,0.652 0.96332,0.97885 1.5201,0.6 0,2e-5 4.26039,-2.7802 4.26039,-2.7802 0.17,-0.11 0.30001,-0.26003 0.38004,-0.44004 l 2.18019,-5.05045 c 0.15004,-0.36008 0.09,-0.77009 -0.17,-1.06009 l -2.60027,-2.95028 z"
     id="path3"
     style="fill:#ffffff" />
  <path
     d="m -260.96649,-305.89551 -1.53017,-4.18037 c -0.12996,-0.37003 -0.48002,-0.63006 -0.88002,-0.65008 l -4.13038,-0.25002 -3.15031,-4.59038 c -0.46672,-0.74443 -1.68356,-0.47771 -1.81015,0.39004 -1e-5,-5e-5 -0.7701,4.5404 -0.7701,4.5404 l -1.95019,2.81025 -4.02032,1.80015 c -0.47007,0.21004 -0.70008,0.75007 -0.54009,1.23009 l 1.53017,4.62041 c 0.13002,0.37009 0.46006,0.64007 0.85005,0.68012 l 3.23033,0.31998 c 0.29243,0.0435 0.58575,-0.0711 0.80006,-0.26997 0.21004,-0.21005 0.32004,-0.50005 0.30001,-0.79012 l -0.15004,-2.12019 0.7801,-0.11 3.87035,2.99026 c 0.43625,0.37406 1.18216,0.22252 1.46015,-0.26999 0,1e-5 2.01019,-3.34032 2.01019,-3.34032 l 3.56032,-1.54012 c 0.48002,-0.22005 0.72004,-0.77009 0.54003,-1.27013 z"
     id="path4"
     style="fill:#ffffff" />
</svg>
