<?xml version="1.0" encoding="UTF-8" standalone="no"?>
<svg
   viewBox="0 0 31.999994 32"
   x="0px"
   y="0px"
   version="1.1"
   id="svg5"
   width="31.999994"
   height="32"
   xmlns="http://www.w3.org/2000/svg"
   xmlns:svg="http://www.w3.org/2000/svg">
  <defs
     id="defs5" />
  <path
     d="m 11.608292,26.456197 c -0.109134,0.01149 -3.1292088,-0.363561 -3.1053225,-0.240034 -1.22e-5,2.1e-5 -1.2326216,0.485766 -1.2326216,0.485766 -0.2015058,0.08005 -0.337795,0.257171 -0.3615223,0.46862 l -0.1184938,1.011524 c -0.040413,0.312903 0.2255813,0.615688 0.5511344,0.628607 -5.6e-6,10e-6 1.3096484,0.08005 1.3096484,0.08005 l 0.2904151,1.188691 c 0.065182,0.262858 0.3021997,0.440013 0.5748193,0.440013 0.029631,0 0.053332,0 0.082974,-0.0054 l 2.364526,-0.314308 c 0.32,-0.04571 0.545197,-0.325748 0.503705,-0.634338 l -0.331863,-2.611675 c -0.02963,-0.262889 -0.248887,-0.46862 -0.527397,-0.497183 z"
     id="path1"
     style="fill:#000000;stroke-width:0.5819" />
  <path
     d="m 25.872492,11.209108 c -0.115372,-0.304511 -0.496721,-0.460732 -0.800017,-0.320028 0,0 -1.914132,0.822931 -1.914132,0.822931 -0.219265,0.09711 -0.361522,0.314309 -0.349659,0.548592 l 0.08891,1.680155 c -0.51557,0.451494 -0.989696,0.942959 -1.416357,1.468716 -0.568924,0.702935 -1.054871,1.468706 -1.445979,2.274512 l -1.949693,1.645829 -0.782257,-0.777209 c -0.130393,-0.131424 -0.320036,-0.194281 -0.509638,-0.165718 -0.189643,0.02285 -0.349658,0.137154 -0.438566,0.297184 l -0.936306,1.708718 -6.145409,0.405741 c -0.077044,0.0054 -0.1481529,0.02285 -0.2133694,0.0572 l -2.7497021,1.23438 c -0.2489236,0.108579 -0.3852128,0.36575 -0.3318643,0.622931 0,0 0.3555548,1.788733 0.3555548,1.788733 0.029631,0.154278 0.1185305,0.285746 0.2548197,0.371447 0.130392,0.08005 0.2903717,0.114298 0.4444608,0.08005 l 3.5438235,-0.691508 c 0,0 1.937864,0.188605 1.937864,0.188605 l 0.325932,1.674435 c 0.05718,0.300307 0.354406,0.504437 0.663728,0.462901 0,0 1.813397,-0.234294 1.813397,-0.234294 0.189643,-0.02285 0.349658,-0.131434 0.438567,-0.285744 0,0 0.971858,-1.663031 0.971858,-1.663031 0,0 1.149675,0.514353 1.149675,0.514353 0.124462,0.0514 0.260752,0.06856 0.391145,0.03422 0.825017,-0.189882 1.582487,-0.603702 2.174888,-1.188691 0,0 0.663722,0.765803 0.663722,0.765803 0.106663,0.120028 0.26075,0.194292 0.426702,0.200011 0.165913,0.0054 0.325932,-0.0514 0.444463,-0.165717 l 1.908201,-1.840185 c 0.142221,-0.131424 0.201505,-0.325715 0.165947,-0.508589 l -0.266683,-1.360127 1.440049,-1.068663 c 0.195575,-0.142862 0.27851,-0.394314 0.20147,-0.617201 l -0.580751,-1.834466 1.357077,-1.211536 c 0.106697,-0.09711 0.171884,-0.222887 0.183747,-0.360029 -0.0012,-0.119191 0.347117,-2.556962 0.231123,-2.588799 -3.5e-5,0 -0.746733,-1.965889 -0.746733,-1.965889 z"
     id="path2"
     style="fill:#000000;stroke-width:0.5819" />
  <path
     d="M 3.7620427,24.89034 C 3.578331,24.690308 3.2642666,24.638888 3.0272067,24.770322 l -2.38228477,1.30299 c -0.27854587,0.154278 -0.37928095,0.491463 -0.23112922,0.76577 l 0.69928279,1.262987 -0.98965556,1.200097 c -0.1125976,0.137142 -0.14815174,0.320028 -0.10666356,0.491496 l 0.44446189,1.771576 c 0.0873804,0.372574 0.57082583,0.559344 0.90075183,0.342851 0,1.1e-5 2.5245416,-1.58868 2.5245416,-1.58868 0.1007329,-0.06287 0.1777741,-0.148591 0.2251974,-0.251451 L 5.4036033,27.181987 C 5.4925081,26.976225 5.456935,26.741931 5.3028704,26.576214 L 3.7620516,24.89034 Z"
     id="path3"
     style="fill:#000000;stroke-width:0.5819" />
  <path
     d="M 31.964588,5.7743208 31.057869,3.3855436 C 30.980859,3.1740944 30.773428,3.0255027 30.536404,3.0140643 L 28.088901,2.8711918 26.22215,0.24812115 c -0.27656,-0.42538775 -0.997611,-0.2729761 -1.072624,0.22287682 -7e-6,-2.146e-5 -0.456331,2.59451763 -0.456331,2.59451763 L 23.537588,4.671375 21.155303,5.7000356 c -0.278545,0.1200172 -0.41484,0.4286068 -0.320036,0.7029028 l 0.906719,2.6402388 c 0.07704,0.2114814 0.272613,0.3657494 0.503706,0.3886368 l 1.914167,0.1828426 c 0.173285,0.024894 0.347093,-0.040667 0.474086,-0.154268 0.124461,-0.1200279 0.189643,-0.285745 0.177774,-0.4514943 L 24.722809,7.797359 25.185066,7.73448 27.478485,9.4431987 c 0.258505,0.2137449 0.700501,0.1271528 0.865228,-0.1542787 0,0 1.19116,-1.9087617 1.19116,-1.9087617 L 31.64458,6.5001005 c 0.28444,-0.1257471 0.426667,-0.4400559 0.320001,-0.7257902 z"
     id="path4"
     style="fill:#000000;stroke-width:0.5819" />
</svg>
