<?xml version="1.0" encoding="UTF-8" standalone="no"?>
<svg
   version="1.1"
   x="0px"
   y="0px"
   viewBox="0 0 896 1120"
   enable-background="new 0 0 32 32"
   xml:space="preserve"
   id="svg6"
   sodipodi:docname="noun-linear-algebra-4998394.svg"
   width="896"
   height="1120"
   xmlns:inkscape="http://www.inkscape.org/namespaces/inkscape"
   xmlns:sodipodi="http://sodipodi.sourceforge.net/DTD/sodipodi-0.dtd"
   xmlns="http://www.w3.org/2000/svg"
   xmlns:svg="http://www.w3.org/2000/svg"><defs
     id="defs6" /><sodipodi:namedview
     id="namedview6"
     pagecolor="#ffffff"
     bordercolor="#000000"
     borderopacity="0.25"
     inkscape:showpageshadow="2"
     inkscape:pageopacity="0.0"
     inkscape:pagecheckerboard="0"
     inkscape:deskcolor="#d1d1d1" /><g
     id="g5"
     style="fill:#ffffff"
     transform="translate(-64,-80)"><path
       d="m 11,22 h 3 c 0.552246,0 1,-0.447266 1,-1 0,-0.552734 -0.447754,-1 -1,-1 H 12 V 4 h 2 C 14.552246,4 15,3.5527344 15,3 15,2.4472656 14.552246,2 14,2 h -3 c -0.552246,0 -1,0.4472656 -1,1 v 18 c 0,0.552734 0.447754,1 1,1 z"
       id="path1"
       style="fill:#ffffff" /><path
       d="m 29,2 h -3 c -0.552246,0 -1,0.4472656 -1,1 0,0.5527344 0.447754,1 1,1 h 2 v 16 h -2 c -0.552246,0 -1,0.447266 -1,1 0,0.552734 0.447754,1 1,1 h 3 c 0.552246,0 1,-0.447266 1,-1 V 3 C 30,2.4472656 29.552246,2 29,2 Z"
       id="path2"
       style="fill:#ffffff" /><circle
       cx="16"
       cy="8"
       r="3"
       id="circle2"
       style="fill:#ffffff" /><circle
       cx="16"
       cy="16"
       r="3"
       id="circle3"
       style="fill:#ffffff" /><circle
       cx="24"
       cy="8"
       r="3"
       id="circle4"
       style="fill:#ffffff" /><circle
       cx="24"
       cy="16"
       r="3"
       id="circle5"
       style="fill:#ffffff" /><path
       d="m 27.707031,23.292969 c -0.390625,-0.390625 -1.023437,-0.390625 -1.414062,0 -0.390625,0.390625 -0.390625,1.023437 0,1.414062 L 26.585937,25 H 7 V 5.4140625 L 7.2929688,5.7070313 C 7.4882813,5.9023438 7.7441406,6 8,6 8.2558594,6 8.5117188,5.9023437 8.7070313,5.7070312 c 0.390625,-0.390625 0.390625,-1.0234375 0,-1.4140625 l -2,-2 c -0.390625,-0.390625 -1.0234375,-0.390625 -1.4140625,0 l -2,2 c -0.390625,0.390625 -0.390625,1.0234375 0,1.4140625 0.390625,0.390625 1.0234375,0.390625 1.4140625,0 L 5,5.4140625 V 25 H 3 c -0.5522461,0 -1,0.447266 -1,1 0,0.552734 0.4477539,1 1,1 h 2 v 2 c 0,0.552734 0.4477539,1 1,1 0.5522461,0 1,-0.447266 1,-1 v -2 h 19.585937 l -0.292968,0.292969 c -0.390625,0.390625 -0.390625,1.023437 0,1.414062 C 26.488281,28.902344 26.744141,29 27,29 c 0.255859,0 0.511719,-0.09766 0.707031,-0.292969 l 2,-2 c 0.390625,-0.390625 0.390625,-1.023437 0,-1.414062 z"
       id="path5"
       style="fill:#ffffff" /></g></svg>
