<?xml version="1.0" encoding="UTF-8" standalone="no"?>
<svg
   version="1.1"
   viewBox="-5 -10 10780.308 12216.393"
   id="svg2"
   sodipodi:docname="noun-terminal-7059175.svg"
   inkscape:export-filename="..\Programming\MY-PORTFOLIO-WEBSITE\portfolio-site\src\assets\course-icons\operatingSystems.svg"
   inkscape:export-xdpi="96"
   inkscape:export-ydpi="96"
   width="10780.308"
   height="12216.393"
   xmlns:inkscape="http://www.inkscape.org/namespaces/inkscape"
   xmlns:sodipodi="http://sodipodi.sourceforge.net/DTD/sodipodi-0.dtd"
   xmlns="http://www.w3.org/2000/svg"
   xmlns:svg="http://www.w3.org/2000/svg">
  <defs
     id="defs2" />
  <sodipodi:namedview
     id="namedview2"
     pagecolor="#ffffff"
     bordercolor="#000000"
     borderopacity="0.25"
     inkscape:showpageshadow="2"
     inkscape:pageopacity="0.0"
     inkscape:pagecheckerboard="0"
     inkscape:deskcolor="#d1d1d1" />
  <path
     d="m -560.69202,-1912.6345 v -57.266 c 0,-4.5703 -1.8672,-8.7227 -4.8789,-11.734 -3.0117,-3.0078 -7.1641,-4.8789 -11.734,-4.8789 h -64.777 c -4.5703,0 -8.7227,1.8672 -11.734,4.8789 -3.0078,3.0117 -4.8789,7.1641 -4.8789,11.734 v 57.266 c 0,4.5703 1.8672,8.7227 4.8789,11.734 3.0078,3.0078 7.1641,4.8789 11.734,4.8789 h 64.777 c 4.5703,0 8.7227,-1.8672 11.734,-4.8789 3.0078,-3.0117 4.8789,-7.1641 4.8789,-11.734 z m -76.164,-54.035 29.605,23.582 c 0.14453,0.1093 0.27734,0.2421 0.39844,0.3945 0.78906,0.9883 0.625,2.4336 -0.36719,3.2227 l -29.637,23.609 c -0.98828,0.789 -2.4336,0.6211 -3.2227,-0.3672 -0.78906,-0.9883 -0.62109,-2.4336 0.36719,-3.2227 l 27.383,-21.812 -27.383,-21.812 c -0.98828,-0.7891 -1.1562,-2.2305 -0.36719,-3.2227 0.78906,-0.9883 2.2305,-1.1562 3.2227,-0.3672 z m 36.625,41.816 h 13.559 c 1.2695,0 2.2969,1.0273 2.2969,2.2969 0,1.2696 -1.0273,2.2969 -2.2969,2.2969 h -13.559 c -1.2695,0 -2.2969,-1.0273 -2.2969,-2.2969 0,-1.2696 1.0273,-2.2969 2.2969,-2.2969 z"
     fill-rule="evenodd"
     id="path1"
     style="fill:#ffffff" />
</svg>
