<?xml version="1.0" encoding="UTF-8" standalone="no"?>
<svg
   version="1.1"
   viewBox="-5 -10 30.054256 27.750876"
   id="svg2"
   width="30.054255"
   height="27.750875"
   xmlns="http://www.w3.org/2000/svg"
   xmlns:svg="http://www.w3.org/2000/svg">
  <defs
     id="defs2" />
  <path
     d="M 25.054254,12.656245 V -4.9053665 c 0,-1.4015617 -0.572609,-2.674967 -1.496199,-3.5984343 C 22.634465,-9.4261948 21.36106,-10 19.959621,-10 H 0.09463336 C -1.3069282,-10 -2.5803336,-9.4273908 -3.5038009,-8.5038008 -4.4261948,-7.5802109 -5,-6.3068055 -5,-4.9053665 V 12.656245 c 0,1.401561 0.5726092,2.674967 1.4961991,3.598434 0.922394,0.922394 2.1969954,1.496199 3.59843426,1.496199 H 19.959621 c 1.401562,0 2.674967,-0.572609 3.598434,-1.496199 0.922394,-0.92359 1.496199,-2.196995 1.496199,-3.598434 z M 1.6972461,-3.9145244 10.776131,3.3173049 c 0.04432,0.033519 0.08505,0.074244 0.122188,0.1209802 0.241979,0.3030794 0.191667,0.7463056 -0.112605,0.9882968 L 1.6970161,11.666691 c -0.3030731,0.24196 -0.74630554,0.190471 -0.98829674,-0.112609 -0.2419789,-0.303079 -0.190468,-0.746305 0.1126051,-0.988296 L 9.2187947,3.8767581 0.82132446,-2.8122701 C 0.51825136,-3.0542613 0.46675576,-3.4962915 0.70871936,-3.8005669 0.95069826,-4.1036462 1.3927408,-4.1551356 1.6970161,-3.9131751 Z M 12.928935,8.9090769 h 4.158103 c 0.389314,0 0.704384,0.315039 0.704384,0.704384 0,0.3893451 -0.31504,0.7043841 -0.704384,0.7043841 h -4.158103 c -0.389314,0 -0.704384,-0.315039 -0.704384,-0.7043841 0,-0.389345 0.31504,-0.704384 0.704384,-0.704384 z"
     fill-rule="evenodd"
     id="path1"
     style="fill:#000000;stroke-width:0.306667" />
</svg>
