<?xml version="1.0" encoding="UTF-8" standalone="no"?>
<svg
   version="1.1"
   viewBox="-5 -10 8811.1631 10624.978"
   id="svg7"
   sodipodi:docname="noun-performance-7254169.svg"
   width="8811.1631"
   height="10624.978"
   xmlns:inkscape="http://www.inkscape.org/namespaces/inkscape"
   xmlns:sodipodi="http://sodipodi.sourceforge.net/DTD/sodipodi-0.dtd"
   xmlns="http://www.w3.org/2000/svg"
   xmlns:svg="http://www.w3.org/2000/svg">
  <defs
     id="defs7" />
  <sodipodi:namedview
     id="namedview7"
     pagecolor="#ffffff"
     bordercolor="#000000"
     borderopacity="0.25"
     inkscape:showpageshadow="2"
     inkscape:pageopacity="0.0"
     inkscape:pagecheckerboard="0"
     inkscape:deskcolor="#d1d1d1" />
  <path
     d="m -1602.5,-2740.763 c 2.3984,1.3984 5.3984,0.6016 6.8008,-1.8008 1.3984,-2.3984 7,-22.102 7,-22.102 0,0 -14.199,14.801 -15.602,17.102 -1.3984,2.3984 -0.5977,5.3984 1.8008,6.8008 z"
     id="path1"
     style="fill:#ffffff" />
  <path
     d="m -1566.699,-2751.666 c -0.1016,-3.5 -0.8008,-6.8008 -1.8984,-9.8984 l -6.6016,3.8008 c 0.6016,1.8984 0.8984,4 1,6.1016 z"
     id="path2"
     style="fill:#ffffff" />
  <path
     d="m -1580,-2777.064 -3.6992,6.5 c 3.3008,2.6992 5.8984,6.1992 7.6016,10.102 l 6.5,-3.8008 c -2.4023,-5 -5.9023,-9.4023 -10.402,-12.801 z"
     id="path3"
     style="fill:#ffffff" />
  <path
     d="m -1598.699,-2776.166 c 4.6992,0.1992 9,1.6992 12.699,4.1016 l 3.6992,-6.5 c -4.8008,-3 -10.398,-4.8984 -16.5,-5.1016 v 7.5 z"
     id="path4"
     style="fill:#ffffff" />
  <path
     d="m -1633.301,-2751.666 h 7.5 c 0.6992,-13.199 11.301,-23.801 24.5,-24.5 v -7.5 c -17.398,0.6992 -31.301,14.602 -32,32 z"
     id="path5"
     style="fill:#ffffff" />
  <path
     d="m -1580.398,-2745.064 c 0,10.801 -8.8008,19.602 -19.602,19.602 -10.8012,0 -19.602,-8.8008 -19.602,-19.602 H -1640 v 3.6992 c 0,1.1016 0.8008,2 1.8008,2.1992 l 4.5,0.8008 c 2.6016,0.5 4.8984,2.3008 5.8984,4.8008 v 0.1015 c 1,2.5 0.6992,5.3008 -0.8008,7.6016 l -2.6016,3.8008 c -0.6015,0.8985 -0.5,2.1016 0.3008,2.8008 l 5.1992,5.1992 c 0.8008,0.8008 1.8984,0.8985 2.8008,0.3008 l 3.8008,-2.6016 c 2.1992,-1.5 5.1016,-1.8008 7.6016,-0.8008 h 0.1016 c 2.5,1 4.3008,3.1992 4.6992,5.8984 l 0.8007,4.5 c 0.1993,1 1.1016,1.8008 2.1992,1.8008 h 7.3984 c 1.1016,0 2,-0.8007 2.1992,-1.8008 l 0.8008,-4.5 c 0.5,-2.6016 2.3008,-4.8984 4.8008,-5.8984 h 0.1016 c 2.5,-1 5.3008,-0.8007 7.6016,0.8008 l 3.8008,2.6016 c 0.8984,0.6016 2.1016,0.5 2.8008,-0.3008 l 5.1992,-5.1992 c 0.8008,-0.8007 0.8984,-1.8984 0.3008,-2.8008 l -2.6016,-3.8008 c -1.5,-2.1992 -1.8008,-5.1016 -0.8008,-7.6016 v -0.1015 c 1,-2.5 3.1992,-4.3008 5.8984,-4.8008 l 4.5,-0.8008 c 1,-0.1992 1.8008,-1.1016 1.8008,-2.1992 v -3.6992 z"
     id="path6"
     style="fill:#ffffff" />
</svg>
