<?xml version="1.0" encoding="UTF-8" standalone="no"?>
<svg
   version="1.1"
   viewBox="-5 -10 32 31.999999"
   id="svg7"
   width="32"
   height="31.999998"
   xmlns="http://www.w3.org/2000/svg"
   xmlns:svg="http://www.w3.org/2000/svg">
  <defs
     id="defs7" />
  <path
     d="m 9.9809926,7.4438994 c 0.9581444,0.5685745 2.1566244,0.2446042 2.7168744,-0.732186 0.55865,-0.9751638 2.796451,-8.9864368 2.796451,-8.9864368 0,0 -5.6724033,6.0179283 -6.232892,6.9534903 -0.5586513,0.9751638 -0.238777,2.1949318 0.7194069,2.7651325 z"
     id="path1"
     style="fill:#000000;stroke-width:0.403025" />
  <path
     d="M 24.283247,3.0108563 C 24.242659,1.5877938 23.963333,0.24572383 23.524849,-1.0137272 L 20.887556,0.53163742 C 21.127891,1.3035065 21.24646,2.1579946 21.287049,3.0124827 Z"
     id="path2"
     style="fill:#000000;stroke-width:0.403025" />
  <path
     d="m 18.969589,-7.3156974 -1.477805,2.6428292 c 1.318647,1.0974658 2.35637,2.5205282 3.036787,4.10736506 l 2.596706,-1.54536476 c -0.959703,-2.0329463 -2.357929,-3.8228732 -4.155529,-5.2047483 z"
     id="path3"
     style="fill:#000000;stroke-width:0.403025" />
  <path
     d="m 11.499467,-6.9505802 c 1.877298,0.080993 3.595438,0.6908765 5.073163,1.6676653 l 1.477805,-2.6428292 C 16.132549,-9.1455119 13.896505,-9.9173811 11.458798,-10 v 3.0494198 z"
     id="path4"
     style="fill:#000000;stroke-width:0.403025" />
  <path
     d="M -2.3237954,3.0108563 H 0.67240321 C 0.95172885,-2.3557159 5.1870753,-6.6663744 10.459985,-6.9505802 V -10 C 3.5096036,-9.7157128 -2.0445497,-4.0629843 -2.3237954,3.0108563 Z"
     id="path5"
     style="fill:#000000;stroke-width:0.403025" />
  <path
     d="m 18.8106 5.1399 c 0 3.9634 -3.5159 7.1929 -7.8309 7.1929 c -4.315 0 -7.8309 -3.2294 -7.8309 -7.1929 H -5 V 6.4973 c 0 0.4042 0.3199 0.7339 0.7194 0.807 l 1.7977 0.2939 c 1.0393 0.1835 1.9569 0.8443 2.3564 1.7616 v 0.0372 c 0.3995 0.9174 0.2793 1.9451 -0.3199 2.7894 L -1.4857 13.5811 c -0.2403 0.3297 -0.1997 0.7712 0.1202 1.0277 l 2.077 1.9078 c 0.3199 0.2939 0.7584 0.3297 1.1189 0.1104 l 1.5184 -0.9546 c 0.8786 -0.5504 2.0381 -0.6608 3.0368 -0.2939 h 0.0406 c 0.9987 0.3669 1.7181 1.1739 1.8773 2.1644 l 0.3199 1.6513 C 8.7029 19.5611 9.0634 19.855 9.5019 19.855 h 2.9556 c 0.4401 0 0.799 -0.2938 0.8786 -0.6608 l 0.3199 -1.6513 c 0.1997 -0.9546 0.9192 -1.7975 1.9179 -2.1644 h 0.0406 c 0.9987 -0.3669 2.1176 -0.2938 3.0368 0.2939 l 1.5184 0.9546 c 0.3589 0.2208 0.8396 0.1835 1.1189 -0.1104 l 2.077 -1.9078 c 0.3199 -0.2938 0.3589 -0.6966 0.1202 -1.0277 l -1.0393 -1.3947 c -0.5992 -0.807 -0.7194 -1.872 -0.3199 -2.7894 v -0.0372 c 0.3995 -0.9174 1.2781 -1.5782 2.3564 -1.7616 l 1.7977 -0.2939 C 26.6801 7.2312 27 6.9001 27 6.4973 V 5.1399 Z"
     id="path6"
     style="fill:#000000;stroke-width:0.403025" />
</svg>
