<?xml version="1.0" encoding="UTF-8" standalone="no"?>
<svg
   version="1.1"
   viewBox="-5 -10 32 31.999999"
   id="svg7"
   width="32"
   height="31.999998"
   xmlns="http://www.w3.org/2000/svg"
   xmlns:svg="http://www.w3.org/2000/svg">
  <defs
     id="defs7" />
  <path
     d="m 9.9809926,7.4438994 c 0.9581444,0.5685745 2.1566244,0.2446042 2.7168744,-0.732186 0.55865,-0.9751638 2.796451,-8.9864368 2.796451,-8.9864368 0,0 -5.6724033,6.0179283 -6.232892,6.9534903 -0.5586513,0.9751638 -0.238777,2.1949318 0.7194069,2.7651325 z"
     id="path1"
     style="fill:#000000;stroke-width:0.403025" />
  <path
     d="M 24.283247,3.0108563 C 24.242659,1.5877938 23.963333,0.24572383 23.524849,-1.0137272 L 20.887556,0.53163742 C 21.127891,1.3035065 21.24646,2.1579946 21.287049,3.0124827 Z"
     id="path2"
     style="fill:#000000;stroke-width:0.403025" />
  <path
     d="m 18.969589,-7.3156974 -1.477805,2.6428292 c 1.318647,1.0974658 2.35637,2.5205282 3.036787,4.10736506 l 2.596706,-1.54536476 c -0.959703,-2.0329463 -2.357929,-3.8228732 -4.155529,-5.2047483 z"
     id="path3"
     style="fill:#000000;stroke-width:0.403025" />
  <path
     d="m 11.499467,-6.9505802 c 1.877298,0.080993 3.595438,0.6908765 5.073163,1.6676653 l 1.477805,-2.6428292 C 16.132549,-9.1455119 13.896505,-9.9173811 11.458798,-10 v 3.0494198 z"
     id="path4"
     style="fill:#000000;stroke-width:0.403025" />
  <path
     d="M -2.3237954,3.0108563 H 0.67240321 C 0.95172885,-2.3557159 5.1870753,-6.6663744 10.459985,-6.9505802 V -10 C 3.5096036,-9.7157128 -2.0445497,-4.0629843 -2.3237954,3.0108563 Z"
     id="path5"
     style="fill:#000000;stroke-width:0.403025" />
  <path
     d="m 18.810591,5.6951589 c 0,4.3915701 -3.51586,7.9699631 -7.830865,7.9699631 -4.3150055,0 -7.8308648,-3.578311 -7.8308648,-7.9699631 H -5 V 7.199214 c 0,0.4478988 0.3199141,0.8131786 0.7194072,0.8941712 l 1.7977193,0.3255967 c 1.0393213,0.2032947 1.95687716,0.9354807 2.35637031,1.9519541 v 0.04127 c 0.39949315,1.016474 0.2793256,2.155249 -0.31991412,3.09073 L -1.4857387,15.0483 c -0.2402951,0.36532 -0.1997466,0.854489 0.1201676,1.138776 l 2.07704473,2.113938 c 0.31991417,0.325597 0.75839777,0.36532 1.11890047,0.122302 l 1.5183935,-1.057782 c 0.8785653,-0.609885 2.0380542,-0.732187 3.0367871,-0.325597 h 0.040589 c 0.9987329,0.406589 1.7181401,1.30076 1.8772982,2.398226 l 0.3198742,1.829652 C 8.7029351,21.674403 9.0633977,22 9.5018814,22 h 2.9556096 c 0.440082,0 0.798987,-0.325556 0.878565,-0.732186 l 0.319915,-1.829652 c 0.199746,-1.057783 0.919153,-1.991637 1.917886,-2.398226 h 0.04059 c 0.998734,-0.40659 2.117634,-0.325556 3.036788,0.325597 l 1.518393,1.057782 c 0.358905,0.244604 0.839575,0.203295 1.1189,-0.122303 l 2.077045,-2.113938 c 0.319915,-0.325557 0.358905,-0.771869 0.120168,-1.138776 l -1.039324,-1.545364 c -0.599239,-0.894171 -0.719407,-2.074256 -0.319913,-3.09073 v -0.04127 c 0.399493,-1.0164724 1.278058,-1.7486584 2.35637,-1.9519531 l 1.79772,-0.3255967 C 26.680086,8.0123926 27,7.6454864 27,7.199214 V 5.6951589 Z"
     id="path6"
     style="fill:#000000;stroke-width:0.403025" />
</svg>
