<?xml version="1.0" encoding="UTF-8" standalone="no"?>
<svg
   version="1.1"
   viewBox="-5 -10 8270.6807 10141.876"
   id="svg2"
   sodipodi:docname="noun-brackets-7122696.svg"
   width="8270.6807"
   height="10141.876"
   xmlns:inkscape="http://www.inkscape.org/namespaces/inkscape"
   xmlns:sodipodi="http://sodipodi.sourceforge.net/DTD/sodipodi-0.dtd"
   xmlns="http://www.w3.org/2000/svg"
   xmlns:svg="http://www.w3.org/2000/svg">
  <defs
     id="defs2" />
  <sodipodi:namedview
     id="namedview2"
     pagecolor="#ffffff"
     bordercolor="#000000"
     borderopacity="0.25"
     inkscape:showpageshadow="2"
     inkscape:pageopacity="0.0"
     inkscape:pagecheckerboard="0"
     inkscape:deskcolor="#d1d1d1" />
  <path
     d="m -1833.316,-3016.6919 h -62.688 c -3.4375,0 -6.25,2.8125 -6.25,6.25 v 62.625 c 0,3.4375 2.8125,6.25 6.25,6.25 h 62.688 c 3.4375,0 6.25,-2.8125 6.25,-6.25 v -62.625 c 0,-3.4375 -2.8125,-6.25 -6.25,-6.25 z m -45.5,40.281 c 0.625,0.5938 1,1.4375 1,2.3125 v 19.531 c 0,1.25 1.0312,2.2812 2.2812,2.2812 h 2.7188 c 1.7188,0 3.125,1.4062 3.125,3.125 0,1.7188 -1.4062,3.125 -3.125,3.125 h -2.7188 c -4.6875,0 -8.5312,-3.8125 -8.5312,-8.5312 v -18.188 l -4.4375,-4.0938 c -0.625,-0.5625 -1,-1.4062 -1,-2.2812 0,-0.8437 0.375,-1.6875 1,-2.2812 l 4.4375,-4.1562 v -18.125 c 0,-4.7188 3.8438,-8.5312 8.5312,-8.5312 h 2.7188 c 1.7188,0 3.125,1.4062 3.125,3.125 0,1.7188 -1.4062,3.125 -3.125,3.125 h -2.7188 c -1.25,0 -2.2812,1.0312 -2.2812,2.2812 v 19.469 c 0,0.875 -0.3438,1.6875 -1,2.2812 l -2.9688,2.8125 z m 38,-0.4375 -4.4375,4.0938 v 18.188 c 0,4.7188 -3.8438,8.5312 -8.5312,8.5312 h -2.7188 c -1.7188,0 -3.125,-1.4062 -3.125,-3.125 0,-1.7188 1.4062,-3.125 3.125,-3.125 h 2.7188 c 1.25,0 2.2812,-1.0312 2.2812,-2.2812 v -19.531 c 0,-0.875 0.375,-1.7188 1,-2.3125 l 2.9688,-2.7188 -2.9688,-2.8125 c -0.6563,-0.5937 -1,-1.4062 -1,-2.2812 v -19.469 c 0,-1.25 -1.0312,-2.2812 -2.2812,-2.2812 -1.7188,0 -3.125,-1.4062 -3.125,-3.125 0,-1.7188 1.4062,-3.125 3.125,-3.125 4.6875,0 8.5312,3.8125 8.5312,8.5312 v 18.125 l 4.4375,4.1562 c 0.625,0.5938 1,1.4375 1,2.2812 0,0.875 -0.375,1.7188 -1,2.2812 z"
     id="path1"
     style="fill:#ffffff" />
</svg>
