<?xml version="1.0" encoding="UTF-8" standalone="no"?>
<svg
   version="1.1"
   viewBox="-5 -10 32 32"
   id="svg2"
   width="32"
   height="32"
   xmlns="http://www.w3.org/2000/svg"
   xmlns:svg="http://www.w3.org/2000/svg">
  <defs
     id="defs2" />
  <path
     d="M 24.340001,-10 H -2.340001 C -3.8030005,-10 -5,-8.8019967 -5,-7.3377705 V 19.33777 C -5,20.801997 -3.8030005,22 -2.340001,22 H 24.340001 C 25.803,22 27,20.801997 27,19.33777 V -7.3377705 C 27,-8.8019967 25.803,-10 24.340001,-10 Z M 4.9752092,7.1579627 C 5.2412091,7.4108958 5.4008091,7.7702755 5.4008091,8.1429876 V 16.46235 c 0,0.532446 0.4388785,0.971692 0.9708779,0.971692 h 1.1571208 c 0.731521,0 1.3299995,0.59898 1.3299995,1.331115 0,0.732134 -0.5984785,1.331115 -1.3299995,1.331115 H 6.371687 c -1.9949988,0 -3.6308769,-1.62396 -3.6308769,-3.633922 V 8.7150475 L 0.8522105,6.9712659 C 0.58621061,6.7316652 0.42661067,6.3722855 0.42661067,5.9995734 c 0,-0.3593797 0.15959994,-0.718802 0.42559983,-0.9716925 L 2.7408101,3.2575196 V -4.462946 c 0,-2.0100046 1.6359207,-3.633922 3.6308769,-3.633922 h 1.1571208 c 0.731521,0 1.3299995,0.5989804 1.3299995,1.3311148 0,0.7321344 -0.5984785,1.3311147 -1.3299995,1.3311147 H 6.371687 c -0.5319994,0 -0.9708779,0.4392466 -0.9708779,0.9716925 v 8.2929514 c 0,0.3727122 -0.1463213,0.718802 -0.4255999,0.9716925 L 3.7116885,5.9997012 Z M 21.148002,6.9716066 19.259403,8.7153883 V 16.46269 c 0,2.010005 -1.635921,3.633922 -3.630877,3.633922 h -1.157121 c -0.731521,0 -1.329999,-0.59898 -1.329999,-1.331114 0,-0.732135 0.598478,-1.331115 1.329999,-1.331115 h 1.157121 c 0.532,0 0.970878,-0.439247 0.970878,-0.971693 V 8.1433284 c 0,-0.3727121 0.1596,-0.7321344 0.4256,-0.9850249 L 18.288525,6.0002123 17.025004,4.8022091 c -0.279321,-0.2528905 -0.4256,-0.5989804 -0.4256,-0.9716925 v -8.2929514 c 0,-0.5324459 -0.438878,-0.9716925 -0.970878,-0.9716925 -0.731521,0 -1.33,-0.5989804 -1.33,-1.3311148 0,-0.7321344 0.598479,-1.3311147 1.33,-1.3311147 1.994999,0 3.630877,1.62396 3.630877,3.633922 v 7.7204656 l 1.888599,1.7703613 c 0.266,0.2529331 0.4256,0.6123128 0.4256,0.9716925 0,0.3727121 -0.1596,0.7321344 -0.4256,0.9716924 z"
     id="path1"
     style="fill:#000000;stroke-width:0.425778" />
</svg>
