<?xml version="1.0" encoding="UTF-8" standalone="no"?>
<svg
   version="1.1"
   viewBox="-5 -10 8080.5898 9913.0098"
   id="svg2"
   sodipodi:docname="noun-design-ux-6942377.svg"
   width="8080.5898"
   height="9913.0098"
   xmlns:inkscape="http://www.inkscape.org/namespaces/inkscape"
   xmlns:sodipodi="http://sodipodi.sourceforge.net/DTD/sodipodi-0.dtd"
   xmlns="http://www.w3.org/2000/svg"
   xmlns:svg="http://www.w3.org/2000/svg">
  <defs
     id="defs2" />
  <sodipodi:namedview
     id="namedview2"
     pagecolor="#ffffff"
     bordercolor="#000000"
     borderopacity="0.25"
     inkscape:showpageshadow="2"
     inkscape:pageopacity="0.0"
     inkscape:pagecheckerboard="0"
     inkscape:deskcolor="#d1d1d1" />
  <path
     d="m -1967.4768,-3118.55 h -15.145 c -1.1719,0 -2.1133,0.9414 -2.1133,2.1133 v 30.344 c 0,1.1719 0.9414,2.1133 2.1133,2.1133 h 15.145 c 1.1719,0 2.1133,-0.9415 2.1133,-2.1133 l 0,-30.344 c 0,-1.1719 -0.9454,-2.1133 -2.1172,-2.1133 z m -9.5,3.8711 h 3.8711 c 1.0703,0 1.9297,0.8554 1.9297,1.9297 0,1.0703 -0.8555,1.9297 -1.9297,1.9297 h -3.8711 c -1.0703,0 -1.9297,-0.8555 -1.9297,-1.9297 0,-1.0742 0.8593,-1.9297 1.9297,-1.9297 z m 1.9297,26.828 c -1.0703,0 -1.9297,-0.8555 -1.9297,-1.9297 0,-1.0703 0.8554,-1.9297 1.9297,-1.9297 1.0586,0 1.9297,0.8554 1.9297,1.9297 0,1.0742 -0.8594,1.9297 -1.9297,1.9297 z m 3.8711,-7.7148 h -7.7305 c -1.0703,0 -1.9297,-0.8555 -1.9297,-1.9297 0,-1.0703 0.8554,-1.9297 1.9297,-1.9297 h 7.7305 c 1.0703,0 1.9297,0.8554 1.9297,1.9297 0,1.0742 -0.8711,1.9297 -1.9297,1.9297 z m 0,-7.543 h -7.7305 c -1.0703,0 -1.9297,-0.8555 -1.9297,-1.9297 0,-1.0703 0.8554,-1.9297 1.9297,-1.9297 h 7.7305 c 1.0703,0 1.9297,0.8554 1.9297,1.9297 0,1.0586 -0.8711,1.9297 -1.9297,1.9297 z m 34.602,-7.4141 h -15.145 c -1.1719,0 -2.1133,0.9414 -2.1133,2.1133 v 30.344 c 0,1.1719 0.9414,2.1133 2.1133,2.1133 h 15.145 c 1.1719,0 2.1133,-0.9415 2.1133,-2.1133 v -30.355 c 0,-1.1602 -0.9415,-2.1016 -2.1133,-2.1016 z m -9.5156,3.8594 h 3.8711 c 1.0703,0 1.9297,0.8554 1.9297,1.9297 0,1.0703 -0.8555,1.9297 -1.9297,1.9297 h -3.8711 c -1.0703,0 -1.9297,-0.8555 -1.9297,-1.9297 0,-1.0586 0.871,-1.9297 1.9297,-1.9297 z m 3.8711,24.914 c 0,1.0703 -0.8555,1.9297 -1.9297,1.9297 -1.0703,0 -1.9297,-0.8555 -1.9297,-1.9297 0,-1.0703 0.8554,-1.9297 1.9297,-1.9297 1.0742,0 1.9297,0.8554 1.9297,1.9297 z m 1.9414,-5.7891 h -7.7422 c -1.0703,0 -1.9297,-0.8555 -1.9297,-1.9297 0,-1.0703 0.8554,-1.9297 1.9297,-1.9297 h 7.7305 c 1.0703,0 1.9297,0.8554 1.9297,1.9297 0.012,1.0586 -0.8594,1.9297 -1.918,1.9297 z m 0,-7.5547 h -7.7422 c -1.0703,0 -1.9297,-0.8555 -1.9297,-1.9297 0,-1.0703 0.8554,-1.9297 1.9297,-1.9297 h 7.7305 c 1.0703,0 1.9297,0.8554 1.9297,1.9297 0.012,1.0703 -0.8594,1.9297 -1.918,1.9297 z m 10.488,-35.016 h -59.602 c -3.8281,0 -6.9297,3.1016 -6.9297,6.9297 v 51.855 c 0,3.8281 3.1016,6.9297 6.9297,6.9297 h 20.156 v 3.8555 h -5.7852 c -1.0703,0 -1.9297,0.8554 -1.9297,1.9297 0,1.0703 0.8554,1.9297 1.9297,1.9297 h 30.855 c 1.0703,0 1.9297,-0.8555 1.9297,-1.9297 0,-1.0703 -0.8555,-1.9297 -1.9297,-1.9297 h -5.7852 v -3.8555 h 20.156 c 3.8281,0 6.9297,-3.1016 6.9297,-6.9297 l 0,-51.871 c -0.016,-3.8125 -3.1016,-6.9141 -6.9297,-6.9141 z m -58.801,13.672 c 0,-3.3008 2.6719,-5.9727 5.9727,-5.9727 h 15.145 c 3.3008,0 5.957,2.6719 5.9727,5.9727 v 30.344 c 0,3.3008 -2.6719,5.9727 -5.9727,5.9727 h -15.145 c -3.3008,0 -5.9727,-2.6719 -5.9727,-5.9727 z m 1.957,44.344 c -1.0703,0 -1.9297,-0.8555 -1.9297,-1.9297 0,-1.0703 0.8554,-1.9297 1.9297,-1.9297 h 23.188 c 1.0703,0 1.9297,0.8554 1.9297,1.9297 0,1.0703 -0.8555,1.9297 -1.9297,1.9297 z m 32.828,11.555 h -11.57 v -3.8555 h 11.57 z m 23.199,-17.527 c 0,3.3008 -2.6719,5.9727 -5.9727,5.9727 h -15.145 c -3.3008,0 -5.9727,-2.6719 -5.9727,-5.9727 l 0,-30.355 c 0,-3.3008 2.6719,-5.9727 5.9727,-5.9727 h 15.145 c 3.3008,0 5.9727,2.6719 5.9727,5.9727 z m -1.9258,-40.473 h -23.188 c -1.0703,0 -1.9297,-0.8555 -1.9297,-1.9297 0,-1.0703 0.8554,-1.9297 1.9297,-1.9297 h 23.188 c 1.0703,0 1.9297,0.8554 1.9297,1.9297 -0,1.0586 -0.8594,1.9297 -1.9297,1.9297 z"
     id="path1"
     style="fill:#ffffff" />
</svg>
