<?xml version="1.0" encoding="UTF-8" standalone="no"?>
<svg
   version="1.1"
   viewBox="-5 -10 32 32"
   id="svg2"
   width="32"
   height="32"
   xmlns="http://www.w3.org/2000/svg"
   xmlns:svg="http://www.w3.org/2000/svg">
  <defs
     id="defs2" />
  <path
     d="M 7.5654537,-4.9624307 H 0.9677628 c -0.51052059,0 -0.92062732,0.4102536 -0.92062732,0.920957 V 9.1821674 c 0,0.5107035 0.41010673,0.9209566 0.92062732,0.9209566 h 6.5976909 c 0.5105206,0 0.9206273,-0.4102967 0.9206273,-0.9209566 V -4.0414737 c 0,-0.5107034 -0.4118492,-0.920957 -0.9223263,-0.920957 z m -4.1385319,1.6869905 h 1.6863864 c 0.4662601,0 0.8406452,0.3727756 0.8406452,0.8409458 0,0.4664271 -0.3726857,0.8409459 -0.8406452,0.8409459 h -1.686386 c -0.46626,0 -0.8406447,-0.3728192 -0.8406447,-0.8409459 0,-0.4681266 0.3743411,-0.8409458 0.8406443,-0.8409458 z m 0.8406447,11.6914 c -0.4662596,0 -0.8406447,-0.3728192 -0.8406447,-0.8409459 0,-0.466427 0.3726421,-0.8409458 0.8406447,-0.8409458 0.4611632,0 0.8406448,0.3727756 0.8406448,0.8409458 0,0.4681267 -0.3743847,0.8409459 -0.8406448,0.8409459 z M 5.953953,5.0539196 H 2.5862771 c -0.4662601,0 -0.8406448,-0.3728192 -0.8406448,-0.8409458 0,-0.4664271 0.3726422,-0.8409459 0.8406448,-0.8409459 H 5.953953 c 0.46626,0 0.8406447,0.3727756 0.8406447,0.8409459 0,0.4681266 -0.3794816,0.8409458 -0.8406447,0.8409458 z m 0,-3.2871713 H 2.5862771 c -0.4662601,0 -0.8406448,-0.3728191 -0.8406448,-0.8409458 0,-0.46642707 0.3726422,-0.84094583 0.8406448,-0.84094583 H 5.953953 c 0.46626,0 0.8406447,0.3727756 0.8406447,0.84094583 0,0.4613283 -0.3794816,0.8409458 -0.8406447,0.8409458 z m 15.07384,-3.2309976 h -6.597691 c -0.510521,0 -0.920627,0.4102534 -0.920627,0.92095687 V 12.680349 c 0,0.510703 0.410106,0.920957 0.920627,0.920957 h 6.597691 c 0.510521,0 0.920627,-0.410297 0.920627,-0.920957 V -0.54808613 c 0,-0.50560467 -0.41015,-0.91585817 -0.920627,-0.91585817 z m -4.145328,1.68189148 h 1.686387 c 0.46626,0 0.840644,0.37277559 0.840644,0.84094582 0,0.4664271 -0.372685,0.8409458 -0.840644,0.8409458 h -1.686387 c -0.46626,0 -0.840644,-0.3728191 -0.840644,-0.8409458 0,-0.46132831 0.379438,-0.84094582 0.840644,-0.84094582 z M 18.568852,11.074938 c 0,0.466427 -0.372686,0.840946 -0.840645,0.840946 -0.46626,0 -0.840645,-0.372819 -0.840645,-0.840946 0,-0.466427 0.372643,-0.840945 0.840645,-0.840945 0.467959,0 0.840645,0.372775 0.840645,0.840945 z m 0.845741,-2.5228371 h -3.372772 c -0.466261,0 -0.840645,-0.3728192 -0.840645,-0.8409459 0,-0.466427 0.372642,-0.8409458 0.840645,-0.8409458 h 3.367675 c 0.46626,0 0.840645,0.3727756 0.840645,0.8409458 0.0052,0.4613283 -0.374385,0.8409459 -0.835548,0.8409459 z m 0,-3.2922701 h -3.372772 c -0.466261,0 -0.840645,-0.3728191 -0.840645,-0.8409458 0,-0.4664271 0.372642,-0.8409458 0.840645,-0.8409458 h 3.367675 c 0.46626,0 0.840645,0.3727756 0.840645,0.8409458 0.0052,0.4664271 -0.374385,0.8409458 -0.835548,0.8409458 z m 4.56894,-15.2596565 H -1.9811806 C -3.6488347,-9.9998257 -5,-8.6481764 -5,-6.979925 v 22.597941 c 0,1.668251 1.3511653,3.0199 3.0188194,3.0199 h 8.7806574 v 1.680192 H 4.2792416 c -0.4662597,0 -0.8406443,0.372776 -0.8406443,0.840946 C 3.4385973,21.625481 3.8112394,22 4.2792416,22 H 17.720758 c 0.46626,0 0.840645,-0.372819 0.840645,-0.840946 0,-0.466427 -0.372686,-0.840946 -0.840645,-0.840946 h -2.520235 v -1.680192 h 8.780658 C 25.648835,18.637916 27,17.286267 27,15.618016 V -6.9868977 C 26.99303,-8.6483507 25.648834,-10 23.981181,-10 Z m -25.61577,5.9581341 c 0,-1.4384588 1.16397279,-2.6028487 2.60191659,-2.6028487 H 7.5673705 c 1.4379438,0 2.5950775,1.1643899 2.6019165,2.6028487 V 9.1819495 c 0,1.4384585 -1.1639727,2.6028485 -2.6019165,2.6028485 H 0.96967959 c -1.4379438,0 -2.60191659,-1.16439 -2.60191659,-2.6028485 z m 0.85253737,19.3247146 c -0.46626007,0 -0.84064457,-0.372819 -0.84064457,-0.840946 0,-0.466427 0.372642,-0.840946 0.84064457,-0.840946 H 9.3218031 c 0.4662601,0 0.8406449,0.372776 0.8406449,0.840946 0,0.466427 -0.3726859,0.840946 -0.8406449,0.840946 z M 13.521324,20.318588 H 8.4810281 v -1.680192 h 5.0402959 z m 10.106295,-7.638109 c 0,1.438459 -1.163973,2.602849 -2.601917,2.602849 h -6.597691 c -1.437943,0 -2.601916,-1.16439 -2.601916,-2.602849 V -0.54795539 c 0,-1.43845871 1.163973,-2.60284861 2.601916,-2.60284861 h 6.597691 c 1.437944,0 2.601917,1.1643899 2.601917,2.60284861 z M 22.788673,-4.9572884 H 12.68717 c -0.46626,0 -0.840645,-0.3728192 -0.840645,-0.8409458 0,-0.4664271 0.372643,-0.8409459 0.840645,-0.8409459 h 10.101503 c 0.466261,0 0.840645,0.3727756 0.840645,0.8409459 0,0.4613283 -0.374384,0.8409458 -0.840645,0.8409458 z"
     id="path1"
     style="fill:#000000;stroke-width:0.435713" />
</svg>
