<?xml version="1.0" encoding="UTF-8" standalone="no"?>
<!-- Created with Inkscape (http://www.inkscape.org/) -->

<svg
   width="210mm"
   height="297mm"
   viewBox="0 0 210 297"
   version="1.1"
   id="svg1"
   xml:space="preserve"
   inkscape:version="1.3.1 (91b66b0783, 2023-11-16)"
   sodipodi:docname="drawing.svg"
   xmlns:inkscape="http://www.inkscape.org/namespaces/inkscape"
   xmlns:sodipodi="http://sodipodi.sourceforge.net/DTD/sodipodi-0.dtd"
   xmlns="http://www.w3.org/2000/svg"
   xmlns:svg="http://www.w3.org/2000/svg"><sodipodi:namedview
     id="namedview1"
     pagecolor="#ffffff"
     bordercolor="#000000"
     borderopacity="0.25"
     inkscape:showpageshadow="2"
     inkscape:pageopacity="0.0"
     inkscape:pagecheckerboard="0"
     inkscape:deskcolor="#d1d1d1"
     inkscape:document-units="mm"
     inkscape:zoom="1.0393815"
     inkscape:cx="494.04382"
     inkscape:cy="893.31973"
     inkscape:window-width="1920"
     inkscape:window-height="1017"
     inkscape:window-x="1912"
     inkscape:window-y="-8"
     inkscape:window-maximized="1"
     inkscape:current-layer="layer1" /><defs
     id="defs1" /><g
     inkscape:label="Layer 1"
     inkscape:groupmode="layer"
     id="layer1"><path
       style="fill:#000000"
       d="m 2.249496,244.42899 0.0032,-27.77553 0.478412,-0.36055 c 0.653083,-0.49219 3.601507,-3.59716 4.085865,-4.30281 0.21586,-0.31448 0.661489,-0.90461 0.990287,-1.3114 0.500928,-0.61975 1.572984,-2.33532 1.572984,-2.51719 0,-0.0296 0.394952,-0.70397 0.877672,-1.49864 0.482719,-0.79466 1.140345,-1.89335 1.461391,-2.44151 0.321046,-0.54817 0.699918,-1.11888 0.841937,-1.26826 0.44392,-0.4669 0.633299,-0.92661 0.50118,-1.21658 -0.127476,-0.27978 -0.322691,-2.23993 -0.324089,-3.25417 -4.94e-4,-0.35792 0.05184,-0.76652 0.116306,-0.908 0.302666,-0.66428 2.501931,-1.2408 3.880209,-1.01716 0.369152,0.0599 0.991736,0.10926 1.383522,0.10969 0.864175,9.6e-4 1.287916,0.19567 1.989368,0.91412 l 0.498547,0.51063 0.812856,-0.0711 c 0.447071,-0.0391 1.119725,-0.17556 1.494787,-0.30319 0.925819,-0.31503 1.728979,-0.42493 3.081542,-0.42168 1.477487,0.004 2.021075,-0.16027 4.48397,-1.35134 2.286168,-1.10561 3.122652,-1.41926 5.496068,-2.06082 0.98093,-0.26516 2.257106,-0.61929 2.835947,-0.78696 1.342515,-0.38887 2.224322,-0.51175 3.783189,-0.52718 1.431841,-0.0142 1.95874,0.0599 2.174388,0.30566 0.08359,0.0953 0.492282,0.83416 0.908211,1.64198 0.41593,0.80783 0.85814,1.57949 0.982689,1.71481 0.347897,0.37798 0.941612,0.68696 2.431512,1.26538 1.199125,0.46553 1.429529,0.59551 1.888421,1.06533 0.287464,0.29432 0.692547,0.62303 0.900184,0.73049 0.932972,0.48282 2.967759,0.66417 4.603854,0.41033 1.066614,-0.1655 5.046322,0.0437 6.08687,0.31997 0.432763,0.1149 1.919895,0.35118 3.304737,0.52508 1.384842,0.1739 2.910372,0.41051 3.390067,0.52581 1.382863,0.3324 2.594614,0.28849 4.264241,-0.15451 0.754861,-0.20029 1.701983,-0.4109 2.104716,-0.46801 0.402733,-0.0571 1.180734,-0.24161 1.72889,-0.40997 0.548157,-0.16836 1.412951,-0.36123 1.921766,-0.4286 0.508815,-0.0674 1.500236,-0.28991 2.203158,-0.49453 0.702922,-0.20463 1.820962,-0.43773 2.484532,-0.51799 0.66357,-0.0803 1.654991,-0.24497 2.203158,-0.36601 1.051955,-0.23229 4.046655,-0.39875 4.761354,-0.26467 0.205244,0.0385 0.510963,0.18595 0.679376,0.32766 0.38723,0.32583 1.12155,1.97837 1.39549,3.14044 l 0.20339,0.8628 1.01765,0.33253 c 1.06676,0.34857 2.38759,0.60515 3.63466,0.70607 0.79721,0.0645 2.40228,0.28312 3.8351,0.52235 0.49046,0.0819 1.43467,0.20361 2.09824,0.27049 l 1.20649,0.1216 0.94421,-0.34063 c 1.64947,-0.59505 1.92406,-0.65172 2.93755,-0.60628 0.76443,0.0343 1.18933,0.12645 2.2316,0.48414 l 1.2874,0.44181 2.48945,-0.032 c 2.28976,-0.0294 2.5778,-0.0124 3.59102,0.21226 1.44217,0.31974 3.81466,0.40154 6.86238,0.23658 2.92731,-0.15844 3.91027,-0.33798 8.33399,-1.52224 0.53942,-0.1444 1.55445,-0.339 2.25562,-0.43244 0.70117,-0.0934 1.65254,-0.26744 2.11415,-0.38667 0.46162,-0.11923 1.38222,-0.24963 2.04579,-0.28978 0.92968,-0.0563 1.36296,-0.13525 1.88842,-0.34427 2.24569,-0.89328 2.22266,-0.88736 3.64042,-0.93608 1.31694,-0.0453 1.36017,-0.0545 2.23467,-0.47727 0.98127,-0.47441 2.61281,-0.97049 3.19182,-0.97049 0.2038,0 0.61945,-0.11494 0.92367,-0.25543 1.00785,-0.46545 1.90211,-0.76763 3.22837,-1.09093 1.73813,-0.42369 2.27205,-0.48449 3.06226,-0.34869 0.36417,0.0626 1.0056,0.1672 1.42541,0.23249 0.66654,0.10366 0.83939,0.18022 1.36386,0.60407 0.33032,0.26695 0.61614,0.52159 0.63517,0.56587 0.0571,0.13299 1.18076,0.95641 1.85383,1.35852 0.34621,0.20684 0.94766,0.50144 1.33656,0.65466 0.3889,0.15322 0.86418,0.37128 1.05619,0.48456 0.19201,0.11329 0.62142,0.29967 0.95425,0.41418 0.33282,0.11451 0.93629,0.37696 1.34103,0.58323 1.23356,0.62866 2.66818,1.09302 3.70495,1.19924 0.89683,0.0919 1.27294,0.0596 2.15071,-0.18436 0.20195,-0.0561 0.76848,-0.15959 1.25894,-0.22989 0.92644,-0.13278 1.42903,-0.092 3.25228,0.26417 0.43277,0.0845 1.495,0.25106 2.36053,0.37006 3.10781,0.4273 3.92566,0.68609 4.43016,1.40183 l 0.31795,0.45108 4.55016,0.0637 c 5.27344,0.0738 6.22875,0.14438 8.79178,0.64957 2.24025,0.44158 2.92641,0.64885 3.89621,1.17699 l 0.72585,0.39529 7e-4,32.07692 7e-4,32.07693 H 102.96205 2.246252 Z"
       id="path1" /></g></svg>
