<?xml version="1.0" encoding="UTF-8" standalone="no"?>
<!-- Created with Inkscape (http://www.inkscape.org/) -->

<svg
   width="89.398476mm"
   height="50.91642mm"
   viewBox="0 0 89.398476 50.91642"
   version="1.1"
   id="svg1"
   xml:space="preserve"
   inkscape:export-filename="pro-skill.svg"
   inkscape:export-xdpi="48.380951"
   inkscape:export-ydpi="48.380951"
   xmlns:inkscape="http://www.inkscape.org/namespaces/inkscape"
   xmlns:sodipodi="http://sodipodi.sourceforge.net/DTD/sodipodi-0.dtd"
   xmlns="http://www.w3.org/2000/svg"
   xmlns:svg="http://www.w3.org/2000/svg"><sodipodi:namedview
     id="namedview1"
     pagecolor="#ffffff"
     bordercolor="#000000"
     borderopacity="0.25"
     inkscape:showpageshadow="2"
     inkscape:pageopacity="0.0"
     inkscape:pagecheckerboard="0"
     inkscape:deskcolor="#d1d1d1"
     inkscape:document-units="mm" /><defs
     id="defs1" /><g
     inkscape:groupmode="layer"
     id="layer2"
     inkscape:label="Layer 2"
     transform="translate(-56.966844,-101.53253)"><path
       id="rect3"
       style="opacity:1;fill:#0f0f17;fill-opacity:1;stroke-width:0.115636"
       d="m 56.980395,119.70658 1.892664,2.96074 3.313859,5.18466 -3.313859,5.18466 -1.884042,2.94734 1.884042,2.94735 3.313859,5.18466 -3.313859,5.18465 -1.906214,2.9821 v 0.16621 h 29.642107 v -32.74237 z" /><path
       id="rect2"
       style="opacity:1;fill:#465f77;fill-opacity:1;stroke-width:0.0685292"
       d="m 79.10561,141.73709 h 7.493065 v 10.71106 z"
       sodipodi:nodetypes="cccc" /><path
       id="rect3-0"
       style="fill:#12121e;fill-opacity:1;stroke-width:0.115636"
       d="m 146.35177,119.70581 -1.89267,2.96074 -3.31385,5.18466 3.31385,5.18466 1.88405,2.94734 -1.88405,2.94735 -3.31385,5.18466 3.31385,5.18465 1.90622,2.9821 v 0.16621 h -29.64211 v -32.74237 z" /><path
       id="rect2-2"
       style="fill:#465f77;fill-opacity:1;stroke-width:0.0682523"
       d="m 124.1532,141.73282 h -7.42999 v 10.71507 z"
       sodipodi:nodetypes="cccc" /><rect
       style="opacity:1;fill:#96ada0;fill-opacity:1;stroke-width:0.175786"
       id="rect1"
       width="44.987358"
       height="40.220108"
       x="79.172401"
       y="101.53253" /><path
       style="fill:#eafad3;fill-opacity:1;stroke-width:0.205937"
       d="m 93.353305,135.3127 c 0.05584,-0.40748 0.304063,-1.46981 0.507848,-2.17362 0.506062,-1.7477 1.324638,-3.36655 2.147735,-4.24743 0.191876,-0.20535 0.636718,-0.59086 0.988532,-0.85669 1.0039,-0.75857 1.587509,-1.25866 2.432901,-2.0848 2.602399,-2.5431 4.752569,-5.81476 6.169859,-9.38795 0.31464,-0.79326 0.71648,-1.97928 0.68221,-2.01354 -0.0134,-0.0134 -0.0546,0.0693 -0.0916,0.18366 -0.23785,0.73535 -0.94797,2.24343 -1.54756,3.2865 -2.0537,3.57272 -4.744505,6.54516 -8.642219,9.54673 -0.841497,0.64801 -1.395546,1.24433 -2.09121,2.25074 -0.206792,0.29916 -0.383631,0.55355 -0.392996,0.56531 -0.07249,0.0911 -0.586972,-0.8307 -0.887933,-1.59111 -0.741125,-1.87255 -1.051965,-3.73381 -0.925352,-5.54088 0.309046,-4.41081 3.093734,-8.03549 8.250388,-10.73912 0.965442,-0.50618 1.968662,-0.95433 3.296482,-1.47257 1.28466,-0.50139 2.06653,-0.88291 2.85168,-1.39152 0.68593,-0.44434 1.63252,-1.15516 2.12289,-1.59412 0.20373,-0.18236 0.3921,-0.33156 0.41863,-0.33156 0.15526,0 1.34467,2.32871 1.75838,3.44268 0.57919,1.55956 0.98419,3.22317 1.15985,4.76425 0.1999,1.7537 0.0734,4.10495 -0.29758,5.52811 -0.56395,2.1638 -1.82666,4.40026 -3.40645,6.03334 -2.15087,2.22342 -4.7496,3.43339 -7.99015,3.72023 -0.704897,0.0624 -2.545197,0.0408 -3.188058,-0.0375 l -0.277525,-0.0338 -0.35969,0.70992 c -0.381295,0.75256 -0.693042,1.65224 -0.879194,2.53727 l -0.113127,0.53785 -0.653847,0.22966 c -0.359619,0.12631 -0.749148,0.27061 -0.865629,0.32066 l -0.211775,0.091 z"
       id="path3" /></g></svg>
