<?xml version="1.0" encoding="UTF-8" standalone="no"?>
<!-- Created with Inkscape (http://www.inkscape.org/) -->

<svg
   width="1923.0166mm"
   height="1049.5605mm"
   viewBox="0 0 1923.0165 1049.5605"
   version="1.1"
   id="svg1"
   xml:space="preserve"
   xmlns="http://www.w3.org/2000/svg"
   xmlns:svg="http://www.w3.org/2000/svg"><defs
     id="defs1" /><g
     id="layer1"
     transform="matrix(9.531774,0,0,13.561559,-21.005705,-2641.9639)"><path
       style="fill:#000000"
       d="m 2.249496,244.42899 0.0032,-27.77553 c -0.5571056,-6.23547 3.7562973,-5.09268 7.127548,-8.49195 0.024059,-0.0243 0.394952,-0.70397 0.877672,-1.49864 0.482719,-0.79466 1.860856,-1.57855 2.181902,-2.12671 0.321046,-0.54817 0.563605,-1.18047 0.705624,-1.32985 0.44392,-0.4669 1.233294,-1.1024 1.101175,-1.39237 -0.127476,-0.27978 -0.350231,-2.09475 -0.351629,-3.10899 -4.94e-4,-0.35792 0.368543,-0.45683 0.433009,-0.59831 0.302666,-0.66428 0.39517,-0.61172 1.773448,-0.38808 0.369152,0.0599 1.721529,0.24475 2.113315,0.24518 0.864175,9.6e-4 1.191528,-1.10119 1.89298,-0.38274 l 0.498547,0.51063 0.812856,-0.0711 c 0.447071,-0.0391 0.238465,1.10194 0.613527,0.97431 0.925819,-0.31503 2.830554,-0.50235 4.183117,-0.4991 1.477487,0.004 3.398043,-0.19898 5.860938,-1.39005 2.692411,-1.30208 12.88333,-2.9167 13.655599,-2.04672 0.874907,0.98561 0.803061,1.03752 0.92761,1.17284 0.347897,0.37798 0.941612,0.68696 2.431512,1.26538 1.199125,0.46553 1.429529,0.59551 1.888421,1.06533 0.287464,0.29432 0.692547,0.62303 0.900184,0.73049 0.932972,0.48282 2.967759,0.66417 4.603854,0.41033 1.066614,-0.1655 5.046322,0.0437 6.08687,0.31997 0.432763,0.1149 1.919895,0.35118 3.304737,0.52508 1.384842,0.1739 2.910372,0.41051 3.390067,0.52581 1.382863,0.3324 2.594614,0.28849 4.264241,-0.15451 0.754861,-0.20029 1.701983,-0.4109 2.104716,-0.46801 0.402733,-0.0571 1.180734,-0.24161 1.72889,-0.40997 0.548157,-0.16836 1.412951,-0.36123 1.921766,-0.4286 0.508815,-0.0674 1.500236,-0.28991 2.203158,-0.49453 0.702922,-0.20463 1.820962,-0.43773 2.484532,-0.51799 0.66357,-0.0803 1.654991,0.16151 2.203158,0.0405 1.051955,-0.23229 4.046655,-0.80523 4.761354,-0.67115 0.205244,0.0385 0.510963,0.18595 0.679376,0.32766 0.38723,0.32583 1.562182,1.78481 1.83612,2.94688 l 0.20339,0.8628 1.01765,0.33253 c 1.066756,0.34857 2.0638,0.39495 3.31087,0.49587 0.79721,0.0645 2.52886,0.17362 3.96168,0.41285 0.49046,0.0819 1.46264,0.0285 1.99113,0.3184 l 1.18702,0.20372 0.82737,0.0426 c 1.8491,0.0952 1.92406,-1.07601 2.93755,-1.03057 0.76443,0.0343 2.23159,0.004 2.87878,0.681 l 1.00512,0.21437 2.4556,-0.001 c 2.28976,-0.0294 2.81147,-0.0535 3.82469,0.1712 1.44217,0.31974 3.11224,0.24749 6.15996,0.0825 2.92731,-0.15844 3.62111,0.0588 8.04483,-1.12544 0.53942,-0.1444 1.89869,-0.43578 2.59986,-0.52922 0.70117,-0.0934 1.70762,-0.24812 2.16923,-0.36732 0.46162,-0.11923 1.49238,-0.23995 2.15595,-0.2801 0.92968,-0.0563 1.28034,0.15509 1.8058,-0.0539 2.24569,-0.89328 2.22266,-0.88736 3.64042,-0.93608 1.31694,-0.0453 1.36017,-0.0545 2.23467,-0.47727 0.98127,-0.47441 2.61281,-0.97049 3.19182,-0.97049 0.2038,0 0.61945,-0.11494 0.92367,-0.25543 1.00785,-0.46545 1.90211,-0.76763 3.22837,-1.09093 1.73813,-0.42369 2.27205,-0.48449 3.06226,-0.34869 0.36417,0.0626 1.39115,-0.0844 1.81096,-0.0191 0.66654,0.10366 0.83939,0.18022 1.36386,0.60407 0.33032,0.26695 0.61614,0.52159 0.63517,0.56587 0.0571,0.13299 1.26257,0.57845 1.93564,0.98056 0.34621,0.20684 0.94766,0.50144 1.33656,0.65466 0.3889,0.15322 0.86418,0.37128 1.05619,0.48456 0.19201,0.11329 0.62142,0.29967 0.95425,0.41418 0.33282,0.11451 0.93629,0.37696 1.34103,0.58323 1.23356,0.62866 2.24213,1.17096 3.2789,1.27718 0.89683,0.0919 1.16278,0.20477 2.04055,-0.0392 0.20195,-0.0561 0.96126,-0.16927 1.45172,-0.23957 0.92644,-0.13278 1.63557,-0.0533 3.45882,0.30289 0.43277,0.0845 1.41238,0.25106 2.27791,0.37006 3.10781,0.4273 3.9532,0.17315 4.4577,0.88889 l 0.31795,0.45108 4.55016,0.0637 c 5.27344,0.0738 6.22875,0.14438 8.79178,0.64957 2.24025,0.44158 2.92642,0.64885 3.89621,1.17699 l 0.72585,0.39529 -0.27469,32.9673 7e-4,32.07693 H 102.96205 2.246252 Z"
       id="path1" /></g></svg>
