<?xml version="1.0" encoding="UTF-8" standalone="no"?>
<svg
   version="1.1"
   x="0px"
   y="0px"
   viewBox="0 0 54.956607 64"
   enable-background="new 0 0 100 100"
   xml:space="preserve"
   id="svg2"
   sodipodi:docname="swipe.svg"
   width="54.956608"
   height="64"
   inkscape:version="1.3.1 (91b66b0783, 2023-11-16)"
   xmlns:inkscape="http://www.inkscape.org/namespaces/inkscape"
   xmlns:sodipodi="http://sodipodi.sourceforge.net/DTD/sodipodi-0.dtd"
   xmlns="http://www.w3.org/2000/svg"
   xmlns:svg="http://www.w3.org/2000/svg"><defs
     id="defs2" /><sodipodi:namedview
     id="namedview2"
     pagecolor="#ffffff"
     bordercolor="#000000"
     borderopacity="0.25"
     inkscape:showpageshadow="2"
     inkscape:pageopacity="0.0"
     inkscape:pagecheckerboard="0"
     inkscape:deskcolor="#d1d1d1"
     inkscape:zoom="12.828125"
     inkscape:cx="27.478685"
     inkscape:cy="32"
     inkscape:window-width="1920"
     inkscape:window-height="1017"
     inkscape:window-x="-8"
     inkscape:window-y="-8"
     inkscape:window-maximized="1"
     inkscape:current-layer="svg2" /><path
     d="m 51.184337,29.017501 c -0.002,-0.0039 -0.003,-0.0079 -0.005,-0.01083 L 45.110078,19.92899 c -0.001,-0.002 -0.002,-0.002 -0.003,-0.0039 -1.842958,-2.754092 -5.63473,-3.530122 -8.451592,-1.727602 -0.785376,0.502891 -1.407423,1.171441 -1.875219,1.936624 -0.808562,-0.741518 -1.797591,-1.270047 -2.909614,-1.497828 -1.59797,-0.326386 -3.228201,-0.02663 -4.595296,0.847027 -1.002133,0.64094 -1.767344,1.53727 -2.238166,2.584468 -1.872194,-0.897317 -4.167825,-0.843083 -6.036996,0.351037 -0.734964,0.469365 -1.326767,1.069877 -1.775407,1.746315 l -6.008785,-8.985978 c -0.01204,-0.01874 -0.02823,-0.03254 -0.04133,-0.05128 -0.894257,-1.304559 -2.2432046,-2.203847 -3.8179859,-2.526288 -1.5949437,-0.325401 -3.2271904,-0.02663 -4.5932793,0.847027 -2.81787035,1.801533 -3.61231726,5.51011 -1.7703665,8.268124 0,0 0,0 0.00103,9.9e-4 L 12.189865,38.463968 c -2.6424477,5.514058 -2.553728,11.042904 0.285315,15.291842 3.381443,5.055537 8.571566,8.521543 14.616627,9.758063 C 28.683727,63.839271 30.284721,64 31.873615,64 c 4.446085,0 8.800423,-1.259199 12.607321,-3.693785 5.168949,-3.306264 8.712712,-8.382509 9.976974,-14.294932 1.266274,-5.905522 0.101818,-11.941204 -3.273571,-16.993782 z m -0.292374,16.266068 c -1.065645,4.980596 -4.049867,9.256161 -8.403196,12.03981 -4.353334,2.785624 -9.556561,3.742103 -14.647884,2.702796 -5.092327,-1.042268 -9.463806,-3.961994 -12.310913,-8.21981 -1.776417,-2.656448 -2.049635,-6.075122 -0.884177,-9.672274 l 3.001359,4.489535 c 0.350848,0.522614 0.933577,0.807585 1.528405,0.807585 0.341773,0 0.688589,-0.09466 0.995075,-0.290888 0.842841,-0.539376 1.078755,-1.64475 0.52728,-2.468113 L 4.0457641,19.767259 C 3.3047498,18.655968 3.6243446,17.160113 4.7605645,16.434372 5.3110329,16.083333 5.96736,15.962048 6.6115895,16.092208 c 0.6432187,0.132133 1.1957025,0.50092 1.554616,1.038323 0,9.9e-4 0,9.9e-4 0.00103,0.002 l 9.0544875,13.54158 c 0.003,0.0049 0.0062,0.0099 0.0092,0.01479 0.0021,0.002 0.003,0.0039 0.004,0.0059 l 7.584584,11.341692 c 0.349838,0.523595 0.932569,0.807582 1.527395,0.807582 0.341776,0 0.68859,-0.09466 0.995077,-0.291875 0.84284,-0.538389 1.078756,-1.643762 0.52728,-2.467126 L 20.283632,28.739512 c -0.001,-9.9e-4 -0.001,-0.002 -0.001,-0.002 -0.74303,-1.111292 -0.423436,-2.608133 0.712786,-3.333875 1.137229,-0.725741 2.664627,-0.412173 3.408664,0.698132 0.0021,0.003 0.005,0.0049 0.0071,0.0089 l 1.092871,1.634889 c 0.001,0.002 0.003,0.0039 0.004,0.0059 0.001,9.9e-4 0.001,0.002 0.0021,0.002 l 6.481605,9.694957 c 0.350848,0.522611 0.933578,0.807582 1.528405,0.807582 0.341774,0 0.688589,-0.09466 0.995077,-0.290889 0.842839,-0.539372 1.078754,-1.643762 0.528288,-2.468109 l -6.48563,-9.700872 c -0.357904,-0.537404 -0.482918,-1.17933 -0.347823,-1.808437 0.134089,-0.629108 0.511149,-1.16947 1.060608,-1.520507 0.552485,-0.35301 1.208813,-0.476267 1.852031,-0.342164 0.644229,0.131147 1.195705,0.50092 1.554618,1.038323 10e-4,0 10e-4,9.9e-4 10e-4,0.002 l 6.483617,9.696928 c 0.350849,0.521627 0.93358,0.806598 1.528407,0.806598 0.341774,0 0.688586,-0.09466 0.995077,-0.290888 0.84284,-0.539376 1.078755,-1.644752 0.528285,-2.469098 l -4.275701,-6.39462 c -0.359921,-0.53839 -0.483928,-1.181303 -0.349838,-1.811395 0.134087,-0.630094 0.512155,-1.170455 1.062624,-1.521494 1.135213,-0.727712 2.663617,-0.414144 3.407657,0.696161 v 9.9e-4 l 6.069256,9.077681 c 10e-4,9.9e-4 0.002,9.9e-4 0.002,0.003 2.846102,4.2588 3.827062,9.34589 2.762424,14.324512 z M 17.270093,9.3357159 23.376652,12.444767 c 0.269185,0.137063 0.556518,0.202142 0.839816,0.202142 0.658343,0 1.293498,-0.350051 1.618133,-0.960422 0.464773,-0.873651 0.117952,-1.9504303 -0.775292,-2.4040182 L 22.811061,8.1376508 C 29.35719,6.4357089 36.255172,6.8616878 42.620836,9.44221 c 0.22886,0.09269 0.464775,0.1370629 0.696657,0.1370629 0.715808,0 1.394313,-0.4151319 1.68467,-1.1014311 C 45.388298,7.5686937 44.945695,6.5254409 44.016162,6.1487648 36.873189,3.2546749 29.12934,2.7793938 21.787757,4.7071437 l 1.118074,-2.1012979 c 0.464772,-0.872663 0.117953,-1.94944195 -0.775292,-2.40401596 -0.892241,-0.454575 -1.994184,-0.115376 -2.457949,0.75729501 L 16.493791,6.931698 c -0.223816,0.4200617 -0.267167,0.9091487 -0.12098,1.3597778 0.146186,0.4496439 0.467796,0.8253349 0.897282,1.0442401 z"
     id="path1"
     style="stroke-width:0.997057 fill;fill:#ffffff"
     inkscape:export-filename="swipe.svg"
     inkscape:export-xdpi="64"
     inkscape:export-ydpi="64" /></svg>
